<svg xmlns="http://www.w3.org/2000/svg" width="167" height="233" fill="none"  xmlns:v="https://vecta.io/nano"><style><![CDATA[.B{fill-opacity:.3}]]></style><g fill="#d3e3f8" class="B"><circle cx="160.646" cy="66.255" r="6.353" transform="rotate(270 160.646 66.255)"/><circle cx="138.865" cy="66.255" r="6.353" transform="rotate(270 138.865 66.255)"/><circle cx="117.08" cy="66.256" r="6.353" transform="rotate(270 117.08 66.256)"/><circle cx="117.08" cy="46.287" r="6.353" transform="rotate(270 117.08 46.287)"/><circle cx="117.08" cy="26.321" r="6.353" transform="rotate(270 117.08 26.321)"/><circle cx="117.08" cy="6.354" r="6.353" transform="rotate(270 117.08 6.354)"/><circle cx="93.482" cy="66.256" r="6.353" transform="rotate(270 93.482 66.256)"/><circle cx="93.482" cy="46.287" r="6.353" transform="rotate(270 93.482 46.287)"/><circle cx="160.646" cy="106.19" r="6.353" transform="rotate(270 160.646 106.19)"/><circle cx="160.646" cy="86.223" r="6.353" transform="rotate(270 160.646 86.223)"/><circle cx="138.865" cy="106.19" r="6.353" transform="rotate(270 138.865 106.19)"/><circle cx="138.865" cy="86.223" r="6.353" transform="rotate(270 138.865 86.223)"/><circle cx="117.08" cy="106.19" r="6.353" transform="rotate(270 117.08 106.19)"/><circle cx="117.08" cy="86.223" r="6.353" transform="rotate(270 117.08 86.223)"/><circle cx="93.482" cy="106.19" r="6.353" transform="rotate(270 93.482 106.19)"/><circle cx="93.482" cy="86.223" r="6.353" transform="rotate(270 93.482 86.223)"/><circle cx="93.482" cy="26.321" r="6.353" transform="rotate(270 93.482 26.321)"/><circle cx="93.482" cy="6.354" r="6.353" transform="rotate(270 93.482 6.354)"/><circle cx="73.517" cy="66.256" r="6.353" transform="rotate(270 73.517 66.256)"/><circle cx="73.517" cy="46.287" r="6.353" transform="rotate(270 73.517 46.287)"/><circle cx="73.517" cy="26.321" r="6.353" transform="rotate(270 73.517 26.321)"/><circle cx="73.517" cy="6.354" r="6.353" transform="rotate(270 73.517 6.354)"/><circle cx="51.732" cy="66.256" r="6.353" transform="rotate(270 51.732 66.256)"/><circle cx="51.732" cy="46.287" r="6.353" transform="rotate(270 51.732 46.287)"/><circle cx="51.732" cy="26.321" r="6.353" transform="rotate(270 51.732 26.321)"/><circle cx="51.732" cy="6.354" r="6.353" transform="rotate(270 51.732 6.354)"/><circle cx="29.951" cy="66.255" r="6.353" transform="rotate(270 29.951 66.255)"/><circle cx="29.951" cy="46.288" r="6.353" transform="rotate(270 29.951 46.288)"/><circle cx="29.951" cy="26.321" r="6.353" transform="rotate(270 29.951 26.321)"/><circle cx="29.951" cy="6.353" r="6.353" transform="rotate(270 29.951 6.353)"/><circle cx="6.353" cy="66.255" r="6.353" transform="rotate(270 6.353 66.255)"/><circle cx="6.353" cy="46.288" r="6.353" transform="rotate(270 6.353 46.288)"/><circle cx="73.517" cy="106.19" r="6.353" transform="rotate(270 73.517 106.19)"/><circle cx="73.517" cy="86.223" r="6.353" transform="rotate(270 73.517 86.223)"/><circle cx="51.732" cy="106.19" r="6.353" transform="rotate(270 51.732 106.19)"/><circle cx="51.732" cy="86.223" r="6.353" transform="rotate(270 51.732 86.223)"/><circle cx="29.951" cy="106.19" r="6.353" transform="rotate(270 29.951 106.19)"/><circle cx="29.951" cy="86.223" r="6.353" transform="rotate(270 29.951 86.223)"/><circle cx="6.353" cy="106.19" r="6.353" transform="rotate(270 6.353 106.19)"/><circle cx="6.353" cy="86.223" r="6.353" transform="rotate(270 6.353 86.223)"/><circle cx="6.353" cy="26.321" r="6.353" transform="rotate(270 6.353 26.321)"/><circle cx="6.353" cy="6.353" r="6.353" transform="rotate(270 6.353 6.353)"/><circle cx="160.646" cy="186.06" r="6.353" transform="rotate(270 160.646 186.06)"/><circle cx="160.646" cy="166.092" r="6.353" transform="rotate(270 160.646 166.092)"/><circle cx="160.646" cy="146.125" r="6.353" transform="rotate(270 160.646 146.125)"/><circle cx="160.646" cy="126.157" r="6.353" transform="rotate(270 160.646 126.157)"/><circle cx="138.865" cy="186.06" r="6.353" transform="rotate(270 138.865 186.06)"/><circle cx="138.865" cy="166.092" r="6.353" transform="rotate(270 138.865 166.092)"/><circle cx="138.865" cy="146.125" r="6.353" transform="rotate(270 138.865 146.125)"/><circle cx="138.865" cy="126.157" r="6.353" transform="rotate(270 138.865 126.157)"/><circle cx="117.08" cy="186.059" r="6.353" transform="rotate(270 117.08 186.059)"/><circle cx="117.08" cy="166.092" r="6.353" transform="rotate(270 117.08 166.092)"/><circle cx="117.08" cy="146.125" r="6.353" transform="rotate(270 117.08 146.125)"/><circle cx="117.08" cy="126.157" r="6.353" transform="rotate(270 117.08 126.157)"/><circle cx="93.482" cy="186.059" r="6.353" transform="rotate(270 93.482 186.059)"/><circle cx="93.482" cy="166.092" r="6.353" transform="rotate(270 93.482 166.092)"/><circle cx="160.646" cy="225.994" r="6.353" transform="rotate(270 160.646 225.994)"/><circle cx="160.646" cy="206.027" r="6.353" transform="rotate(270 160.646 206.027)"/><circle cx="138.865" cy="225.994" r="6.353" transform="rotate(270 138.865 225.994)"/><circle cx="138.865" cy="206.027" r="6.353" transform="rotate(270 138.865 206.027)"/><circle cx="117.08" cy="225.994" r="6.353" transform="rotate(270 117.08 225.994)"/><circle cx="117.08" cy="206.028" r="6.353" transform="rotate(270 117.08 206.028)"/><circle cx="93.482" cy="225.994" r="6.353" transform="rotate(270 93.482 225.994)"/><circle cx="93.482" cy="206.028" r="6.353" transform="rotate(270 93.482 206.028)"/><circle cx="93.482" cy="146.125" r="6.353" transform="rotate(270 93.482 146.125)"/><circle cx="93.482" cy="126.157" r="6.353" transform="rotate(270 93.482 126.157)"/><circle cx="73.517" cy="186.059" r="6.353" transform="rotate(270 73.517 186.059)"/><circle cx="73.517" cy="166.092" r="6.353" transform="rotate(270 73.517 166.092)"/><circle cx="73.517" cy="146.125" r="6.353" transform="rotate(270 73.517 146.125)"/><circle cx="73.517" cy="126.157" r="6.353" transform="rotate(270 73.517 126.157)"/><circle cx="51.732" cy="186.059" r="6.353" transform="rotate(270 51.732 186.059)"/><circle cx="51.732" cy="166.092" r="6.353" transform="rotate(270 51.732 166.092)"/><circle cx="51.732" cy="146.125" r="6.353" transform="rotate(270 51.732 146.125)"/><circle cx="51.732" cy="126.157" r="6.353" transform="rotate(270 51.732 126.157)"/><circle cx="29.951" cy="186.06" r="6.353" transform="rotate(270 29.951 186.06)"/><circle cx="29.951" cy="166.092" r="6.353" transform="rotate(270 29.951 166.092)"/><circle cx="29.951" cy="146.125" r="6.353" transform="rotate(270 29.951 146.125)"/><circle cx="29.951" cy="126.157" r="6.353" transform="rotate(270 29.951 126.157)"/><circle cx="6.353" cy="186.06" r="6.353" transform="rotate(270 6.353 186.06)"/><circle cx="6.353" cy="166.092" r="6.353" transform="rotate(270 6.353 166.092)"/><circle cx="73.517" cy="225.994" r="6.353" transform="rotate(270 73.517 225.994)"/><circle cx="73.517" cy="206.028" r="6.353" transform="rotate(270 73.517 206.028)"/><circle cx="51.732" cy="225.994" r="6.353" transform="rotate(270 51.732 225.994)"/><circle cx="51.732" cy="206.028" r="6.353" transform="rotate(270 51.732 206.028)"/><circle cx="29.951" cy="225.994" r="6.353" transform="rotate(270 29.951 225.994)"/><circle cx="29.951" cy="206.027" r="6.353" transform="rotate(270 29.951 206.027)"/><circle cx="6.353" cy="225.994" r="6.353" transform="rotate(270 6.353 225.994)"/><circle cx="6.353" cy="206.027" r="6.353" transform="rotate(270 6.353 206.027)"/><circle cx="6.353" cy="146.125" r="6.353" transform="rotate(270 6.353 146.125)"/><circle cx="6.353" cy="126.157" r="6.353" transform="rotate(270 6.353 126.157)"/></g></svg>